<?xml version="1.0" standalone="no"?>
<!DOCTYPE svg PUBLIC "-//W3C//DTD SVG 20010904//EN"
 "http://www.w3.org/TR/2001/REC-SVG-20010904/DTD/svg10.dtd">
<svg version="1.0" xmlns="http://www.w3.org/2000/svg"
 width="900.000000pt" height="900.000000pt" viewBox="0 0 900.000000 900.000000"
 preserveAspectRatio="xMidYMid meet">
<metadata>
Created by potrace 1.10, written by Peter Selinger 2001-2011
</metadata>
<g transform="translate(0.000000,900.000000) scale(0.100000,-0.100000)"
fill="#ffffff" stroke="none">
<path d="M2843 7543 c-7 -3 -13 -12 -13 -20 0 -10 -6 -13 -16 -9 -8 3 -25 1
-36 -5 -21 -11 -50 -16 -163 -25 -36 -3 -65 -11 -71 -20 -15 -19 -68 -34 -124
-34 -27 0 -58 -8 -78 -20 -18 -11 -37 -18 -42 -15 -5 3 -17 1 -27 -4 -10 -5
-52 -15 -93 -22 -41 -7 -82 -18 -91 -26 -8 -7 -25 -13 -36 -13 -12 0 -34 -7
-50 -15 -15 -7 -49 -24 -75 -35 -27 -12 -48 -26 -48 -31 0 -5 -9 -9 -19 -9
-27 0 -111 -37 -111 -50 0 -5 -20 -15 -44 -21 -46 -11 -175 -89 -189 -114 -4
-8 -16 -15 -26 -15 -9 0 -30 -13 -47 -28 -16 -16 -40 -35 -54 -42 -32 -17
-170 -132 -170 -142 0 -4 -14 -15 -31 -24 -36 -18 -130 -111 -174 -173 -36
-50 -52 -68 -63 -73 -10 -4 -92 -111 -110 -144 -7 -13 -17 -24 -21 -24 -4 0
-18 -20 -30 -45 -12 -25 -26 -45 -31 -45 -10 0 -40 -57 -40 -75 0 -7 -9 -15
-20 -18 -11 -3 -20 -14 -20 -25 0 -11 -7 -25 -15 -32 -8 -7 -15 -21 -15 -31 0
-11 -4 -19 -9 -19 -5 0 -12 -11 -15 -25 -3 -13 -17 -41 -31 -61 -17 -24 -23
-44 -19 -60 4 -17 -1 -30 -21 -48 -19 -18 -27 -36 -29 -68 -4 -60 -15 -88 -32
-88 -8 0 -14 -10 -14 -25 0 -15 -7 -40 -16 -56 -12 -24 -13 -34 -3 -45 7 -9 8
-14 1 -14 -12 0 -24 -35 -46 -140 -44 -212 -44 -214 -41 -575 2 -305 5 -364
23 -455 11 -58 25 -118 30 -135 6 -16 19 -59 28 -95 10 -36 23 -72 31 -81 7
-8 16 -51 19 -95 4 -44 16 -103 29 -134 12 -30 28 -77 35 -105 7 -27 18 -59
26 -71 7 -11 18 -41 24 -65 6 -24 18 -49 26 -56 9 -6 22 -38 31 -70 8 -32 22
-62 30 -67 8 -4 26 -34 40 -65 14 -31 31 -63 38 -71 7 -8 16 -26 20 -40 4 -14
23 -42 41 -63 19 -20 34 -45 34 -55 0 -9 9 -28 20 -42 11 -14 20 -35 20 -47 0
-24 14 -31 25 -13 10 16 25 11 25 -8 0 -20 -18 -42 -35 -42 -6 0 -19 13 -28
30 -10 17 -24 30 -32 30 -7 0 -21 7 -29 16 -29 29 -58 13 -104 -56 -23 -36
-47 -81 -52 -100 -49 -192 -42 -498 14 -643 13 -34 26 -83 30 -108 3 -25 17
-68 31 -96 14 -28 25 -56 25 -62 0 -5 13 -25 28 -43 16 -18 32 -41 35 -52 12
-30 81 -114 99 -119 10 -3 22 -16 27 -29 9 -25 84 -98 100 -98 5 0 13 -9 16
-20 3 -11 14 -20 23 -20 9 0 27 -11 41 -24 31 -30 202 -116 229 -116 11 0 33
-6 49 -14 81 -41 143 -50 353 -50 171 0 211 3 244 17 21 9 47 17 57 17 11 0
19 5 19 10 0 6 11 10 25 10 39 0 166 38 184 54 9 9 41 21 70 28 29 6 55 18 58
24 3 7 35 32 71 55 98 63 142 99 142 115 0 9 14 27 30 41 17 13 30 31 30 38 0
7 7 18 15 25 9 7 13 20 10 28 -3 8 0 21 6 28 15 18 2 72 -21 84 -10 5 -31 7
-47 4 -30 -6 -64 18 -49 34 4 4 158 8 342 9 287 1 338 3 359 17 13 9 48 18 77
20 66 5 153 23 176 35 9 5 39 12 67 16 27 5 64 14 82 22 18 7 61 20 96 28 34
7 80 18 102 24 22 5 62 13 88 16 43 6 47 8 35 22 -12 15 -9 16 20 10 25 -5 37
-2 53 14 15 15 29 19 47 16 18 -3 46 5 82 23 30 16 75 38 100 50 25 12 56 28
70 35 14 7 36 18 50 25 14 6 41 21 61 33 19 12 60 37 90 55 72 44 147 95 186
127 18 15 50 38 70 52 21 14 61 50 89 79 28 30 55 54 60 54 5 0 25 18 44 41
19 23 58 64 85 93 28 28 66 71 85 96 19 25 54 67 77 94 24 26 46 60 50 75 3
14 14 43 24 63 11 21 19 45 19 55 0 22 -53 74 -98 97 -31 16 -35 16 -51 2 -10
-9 -24 -16 -31 -16 -8 0 -26 -11 -40 -25 l-27 -26 -54 36 c-47 32 -58 36 -95
30 -44 -6 -67 7 -38 23 15 8 14 10 -2 16 -14 5 -25 0 -39 -18 -12 -14 -27 -26
-35 -26 -8 0 -24 -7 -34 -15 -22 -17 -67 -20 -82 -6 -5 5 -29 12 -54 16 -37 5
-52 1 -82 -17 -50 -31 -208 -186 -208 -204 0 -8 -8 -14 -18 -14 -10 0 -33 -16
-52 -35 -19 -19 -40 -35 -47 -35 -8 0 -16 -7 -20 -15 -3 -9 -23 -25 -44 -35
-20 -11 -40 -29 -44 -40 -4 -11 -20 -23 -41 -29 -19 -5 -48 -21 -65 -35 -17
-14 -37 -26 -44 -26 -8 0 -23 -9 -34 -21 -11 -12 -24 -18 -30 -15 -5 4 -12 2
-16 -4 -3 -6 -21 -17 -38 -25 -18 -9 -43 -22 -57 -29 -14 -8 -59 -28 -100 -46
-41 -18 -83 -36 -92 -41 -10 -5 -31 -9 -47 -9 -17 0 -32 -4 -35 -9 -6 -9 -103
-22 -184 -25 -23 -1 -47 -7 -54 -14 -19 -19 -371 -16 -427 4 -31 10 -60 13
-98 8 -73 -9 -164 3 -157 21 7 18 -20 31 -81 40 -27 4 -79 18 -114 31 -35 13
-78 24 -97 24 -19 0 -41 8 -51 19 -29 30 -80 51 -115 49 -26 -2 -32 0 -30 14
2 12 -6 20 -25 24 -15 4 -35 13 -44 20 -18 16 -89 57 -136 79 -17 8 -34 19
-37 24 -3 5 -30 23 -60 40 -30 17 -58 37 -63 44 -4 8 -18 19 -30 26 -83 43
-430 394 -448 453 -4 12 -25 43 -45 68 -21 25 -45 63 -54 85 -9 21 -23 47 -31
55 -8 9 -33 52 -56 96 -23 43 -48 86 -55 95 -8 8 -14 25 -14 37 0 11 -5 24
-10 27 -6 3 -10 15 -10 25 0 10 -8 23 -17 29 -53 29 -91 496 -63 769 16 149
42 306 53 320 6 7 13 32 17 55 12 68 34 141 46 152 7 6 15 27 19 49 3 21 17
55 29 75 13 20 26 51 29 69 4 18 20 53 37 77 16 24 30 49 30 55 0 7 24 50 53
97 28 47 59 98 68 115 8 17 23 34 32 40 9 5 29 30 44 56 15 26 35 53 46 60 10
8 29 31 43 53 13 21 30 39 37 39 7 0 21 16 30 36 11 22 28 39 47 46 19 6 30
17 30 29 0 10 4 19 9 19 5 0 24 14 42 31 18 17 52 44 76 60 24 17 43 34 43 40
0 6 14 15 30 20 17 6 30 14 30 18 0 9 103 81 116 81 5 0 25 13 44 30 19 16 44
29 55 30 11 0 45 16 75 35 30 19 60 35 67 35 7 0 13 6 13 14 0 7 24 21 58 31
31 10 84 31 117 47 47 22 74 28 127 28 71 0 101 7 92 21 -3 5 -1 9 5 9 5 0 12
-6 14 -12 4 -10 7 -10 15 0 9 13 39 14 432 10 8 0 22 -2 30 -5 8 -3 31 -7 50
-9 138 -11 233 -29 335 -63 17 -5 52 -14 79 -20 26 -7 68 -20 92 -31 23 -11
48 -20 53 -20 6 0 39 -13 73 -29 35 -17 75 -32 89 -35 14 -3 43 -19 64 -36 21
-16 48 -30 61 -30 13 0 33 -9 44 -20 11 -11 24 -20 29 -20 6 0 16 -8 23 -18 7
-11 46 -38 85 -62 40 -24 96 -62 124 -86 28 -24 54 -44 58 -44 16 0 261 -251
261 -267 0 -5 18 -27 41 -48 40 -38 77 -87 109 -144 40 -69 91 -141 99 -141 5
0 20 -14 32 -31 20 -29 21 -33 7 -58 -40 -67 -42 -96 -48 -561 -4 -410 -7
-459 -22 -482 -10 -15 -26 -27 -35 -27 -10 0 -198 0 -418 0 -389 0 -465 5
-482 32 -4 6 -10 222 -13 478 l-5 466 -33 49 c-67 98 24 89 -903 92 -683 2
-832 0 -915 -12 -96 -14 -224 -52 -281 -81 -16 -8 -31 -15 -36 -15 -10 0 -129
-72 -157 -96 -106 -89 -185 -184 -237 -284 -56 -107 -73 -185 -73 -328 0 -222
55 -386 174 -523 17 -19 40 -46 52 -60 63 -72 197 -168 284 -203 25 -10 53
-22 62 -27 10 -5 40 -9 66 -9 38 0 55 -6 75 -24 48 -44 145 -51 717 -50 457 2
523 4 578 19 49 14 65 15 76 5 8 -6 24 -9 35 -5 10 3 22 1 26 -5 8 -13 1075
-13 1197 1 84 9 128 30 187 93 19 20 42 36 50 36 8 0 38 -24 67 -52 29 -29 62
-61 75 -70 26 -20 6 -20 509 -19 626 0 765 2 822 12 37 6 72 6 102 -1 47 -10
1319 -16 1381 -6 17 3 68 10 115 17 107 14 145 27 244 81 146 79 259 204 301
334 33 99 35 246 5 313 -11 24 -20 51 -21 60 0 15 -32 65 -94 148 -34 45 -96
96 -163 133 -69 38 -73 66 -23 132 60 79 103 135 132 171 32 41 81 123 98 165
11 25 11 35 1 47 -14 17 -40 20 -40 5 0 -5 -8 -18 -17 -28 -35 -36 -120 -138
-168 -202 -27 -36 -52 -67 -55 -70 -3 -3 -18 -24 -34 -47 l-29 -43 -568 0
-568 0 -15 -22 c-22 -31 -20 -54 6 -78 21 -20 33 -20 494 -20 429 0 480 -2
552 -19 212 -51 364 -177 427 -353 20 -57 17 -223 -5 -278 -36 -90 -150 -217
-225 -251 -11 -5 -27 -13 -35 -18 -28 -16 -85 -39 -140 -57 -51 -18 -109 -19
-822 -22 -545 -2 -768 0 -773 8 -4 6 11 30 32 53 61 69 86 99 126 152 20 28
40 55 45 60 4 6 25 36 46 68 l38 57 584 0 c534 0 586 1 621 18 50 23 70 41 78
74 10 38 -8 63 -67 92 l-52 26 -497 0 c-416 0 -503 2 -539 15 -23 8 -51 15
-61 15 -53 0 -221 104 -272 167 -10 13 -24 29 -30 36 -35 37 -67 144 -67 221
0 116 46 215 138 296 59 52 55 49 126 83 128 62 93 60 916 67 786 6 816 8 808
48 -2 9 -21 26 -43 37 -39 19 -63 20 -665 23 -681 3 -814 -3 -943 -43 -77 -25
-137 -51 -147 -65 -3 -4 -18 -14 -35 -23 -46 -23 -152 -134 -186 -195 -42 -72
-59 -141 -59 -237 1 -192 106 -349 303 -450 53 -28 109 -56 123 -64 l26 -13
-39 -23 c-54 -30 -108 -37 -174 -21 -41 9 -174 13 -485 15 -349 2 -433 5 -451
16 -30 20 -32 53 -36 540 l-3 420 -37 54 c-39 56 -48 105 -23 125 8 6 18 37
21 69 6 49 5 57 -9 57 -12 0 -16 8 -15 28 3 42 -30 142 -47 142 -9 0 -14 11
-14 29 0 17 -4 33 -10 36 -5 3 -10 17 -10 30 0 26 -15 41 -25 25 -13 -21 -27
-10 -20 17 7 30 -21 93 -42 93 -7 0 -13 9 -13 20 0 20 -52 103 -84 136 -9 8
-16 20 -16 26 0 11 -6 19 -107 147 -81 102 -249 273 -323 328 -30 22 -64 50
-74 62 -11 11 -23 21 -27 21 -4 0 -38 21 -74 48 -91 65 -137 92 -157 92 -10 0
-18 7 -18 15 0 19 -54 47 -74 39 -9 -3 -23 -3 -33 0 -15 6 -15 8 2 20 17 12
17 13 1 19 -10 4 -21 5 -26 2 -4 -3 -13 2 -20 10 -7 8 -23 15 -35 15 -13 0
-25 7 -29 15 -3 8 -16 15 -29 15 -14 0 -30 7 -37 15 -7 9 -29 15 -52 15 -38 0
-85 22 -101 48 -5 7 -17 10 -28 7 -10 -4 -34 -2 -51 4 -18 6 -62 21 -98 32
-36 12 -92 25 -125 30 -83 10 -212 36 -226 44 -6 4 -158 8 -338 9 -179 1 -330
4 -336 7 -5 4 -16 4 -22 2z m597 -83 c145 -14 315 -45 420 -76 100 -29 235
-76 245 -85 5 -5 16 -9 23 -9 8 0 48 -16 88 -35 40 -19 77 -35 82 -35 6 0 12
-3 14 -7 2 -5 37 -25 78 -47 224 -115 491 -328 660 -527 30 -35 58 -66 61 -69
6 -6 69 -90 89 -120 8 -12 20 -28 25 -34 15 -16 67 -96 85 -131 9 -16 37 -68
63 -114 26 -46 47 -88 47 -93 0 -6 6 -22 13 -36 8 -15 21 -43 29 -62 8 -19 29
-64 46 -100 45 -92 43 -101 -15 -94 -82 9 -93 14 -106 42 -25 58 -175 295
-197 312 -3 3 -27 32 -52 65 -122 160 -498 498 -525 472 -3 -4 33 -46 80 -94
96 -99 137 -148 232 -280 25 -35 45 -66 45 -70 0 -3 6 -14 14 -22 30 -35 176
-322 176 -347 0 -4 7 -12 16 -19 12 -8 15 -20 10 -39 -6 -26 -8 -26 -59 -21
-86 10 -91 13 -112 52 -88 166 -299 418 -475 567 -47 39 -96 81 -110 94 -14
12 -28 22 -31 22 -3 0 -17 9 -30 20 -13 11 -28 23 -34 28 -5 4 -59 37 -120 74
-137 82 -319 169 -420 202 -27 9 -57 20 -65 23 -105 44 -320 88 -565 114 -194
20 -223 20 -440 -6 -192 -22 -226 -30 -308 -71 -16 -8 -33 -14 -39 -14 -30 0
-254 -114 -358 -181 -83 -54 -201 -141 -237 -173 -6 -6 -44 -40 -85 -76 -82
-72 -234 -237 -278 -300 -27 -39 -110 -155 -118 -165 -19 -24 -82 -134 -82
-143 0 -6 -3 -12 -7 -14 -8 -3 -56 -97 -86 -168 -9 -19 -24 -55 -35 -80 -11
-25 -27 -67 -36 -95 -9 -27 -20 -59 -25 -70 -5 -11 -14 -40 -21 -65 -32 -125
-42 -170 -51 -220 -5 -30 -15 -75 -21 -100 -15 -66 -22 -468 -9 -585 18 -164
28 -226 40 -238 6 -6 11 -20 11 -30 0 -10 7 -35 16 -55 8 -21 21 -50 28 -67
15 -35 116 -239 131 -263 35 -60 131 -200 147 -215 10 -10 26 -30 36 -45 29
-46 62 -82 192 -212 129 -129 167 -163 210 -191 14 -9 36 -26 50 -38 40 -33
43 -35 85 -61 22 -13 42 -28 43 -32 2 -4 10 -8 17 -8 8 0 20 -6 27 -14 22 -22
202 -118 293 -156 28 -11 57 -24 65 -29 9 -5 31 -12 50 -16 19 -4 44 -14 55
-21 11 -8 29 -14 40 -14 12 0 25 -4 31 -9 5 -5 32 -14 59 -21 28 -6 77 -18
110 -27 58 -14 156 -32 295 -53 79 -11 436 -12 505 0 28 5 86 14 130 20 44 7
84 16 89 21 6 5 18 9 29 9 10 0 39 10 65 21 26 12 76 34 112 51 36 16 74 33
84 39 10 6 49 27 85 47 36 20 68 40 69 44 2 4 10 8 17 8 8 0 20 6 27 13 7 6
40 30 73 52 33 22 62 42 65 45 3 3 39 32 80 65 78 62 234 214 285 277 26 31
37 38 75 40 34 2 45 -1 48 -13 4 -24 -277 -292 -408 -390 -118 -87 -139 -101
-177 -118 -13 -6 -23 -15 -23 -21 0 -15 36 -12 50 5 7 8 20 15 30 15 10 0 23
7 30 15 7 8 17 15 22 15 9 0 56 28 193 113 98 61 274 205 375 308 l65 66 73 6
c68 5 72 5 72 -15 0 -11 -8 -30 -17 -43 -10 -12 -24 -31 -31 -41 -155 -228
-264 -358 -412 -489 -77 -68 -288 -229 -312 -238 -10 -3 -18 -11 -18 -17 0
-15 36 -12 50 5 7 8 20 15 30 15 10 0 23 7 30 15 7 8 16 15 21 15 5 0 28 12
52 27 23 15 50 32 59 38 216 131 475 370 637 589 42 57 81 111 86 120 6 10 26
17 50 19 32 2 40 -2 43 -17 2 -11 -2 -24 -10 -30 -7 -6 -25 -27 -38 -46 -13
-19 -29 -40 -35 -46 -5 -6 -17 -22 -25 -34 -48 -72 -97 -127 -230 -260 -161
-161 -213 -204 -367 -306 -54 -35 -102 -67 -108 -72 -10 -8 -273 -137 -310
-153 -102 -41 -208 -79 -224 -79 -11 0 -22 -4 -25 -9 -4 -5 -24 -12 -46 -16
-22 -4 -42 -11 -46 -16 -3 -5 -21 -9 -39 -9 -19 0 -54 -6 -77 -14 -24 -8 -59
-17 -78 -21 -19 -4 -41 -11 -50 -16 -25 -14 -210 -52 -365 -75 -139 -21 -437
-29 -560 -15 -131 15 -171 22 -389 70 -27 6 -54 15 -60 20 -6 5 -30 12 -53 16
-24 4 -45 11 -49 16 -3 5 -13 9 -22 9 -9 0 -30 7 -46 15 -15 8 -33 15 -39 15
-21 0 -288 130 -347 170 -197 130 -254 169 -300 208 -105 89 -282 267 -355
358 -69 85 -185 247 -185 258 0 3 -11 21 -24 41 -14 20 -50 88 -81 153 -31 64
-60 125 -66 134 -5 10 -9 23 -9 30 0 7 -7 25 -14 40 -8 16 -24 58 -36 95 -12
38 -26 77 -30 88 -13 31 -39 125 -50 175 -12 64 -30 132 -40 155 -15 35 -52
213 -70 340 -5 39 -15 93 -21 120 -15 71 -6 485 14 605 29 174 39 225 47 235
4 6 11 31 14 57 4 26 11 50 17 53 5 4 9 19 9 34 0 15 7 36 15 47 8 10 15 27
15 37 0 11 7 35 16 55 56 126 73 164 108 231 22 42 46 91 55 109 8 17 19 32
23 32 4 0 8 6 8 14 0 8 6 21 13 28 7 7 24 31 37 53 96 161 318 410 485 544 39
31 72 59 75 62 37 44 369 238 505 294 22 9 54 23 70 30 17 8 42 17 58 21 15 3
30 10 33 15 3 5 17 9 31 9 13 0 37 6 51 14 26 13 53 21 172 51 83 21 159 41
220 60 30 9 81 20 113 26 32 5 67 13 77 19 10 5 36 10 57 10 21 0 56 5 78 11
84 24 417 34 575 19z m1860 -1669 c17 -33 11 -41 -30 -41 -32 0 -40 4 -40 18
0 41 51 57 70 23z m-1895 -168 c0 -6 -16 -28 -35 -50 -19 -21 -48 -57 -64 -80
-16 -24 -39 -53 -51 -65 -12 -13 -33 -41 -47 -63 -14 -22 -37 -52 -51 -67 -14
-16 -30 -35 -35 -44 -7 -13 -58 -15 -440 -14 -366 0 -437 -2 -468 -15 -20 -8
-44 -15 -54 -15 -10 0 -23 -7 -30 -15 -7 -8 -19 -15 -27 -15 -17 0 -91 -55
-112 -84 -8 -11 -23 -28 -33 -38 -10 -10 -18 -24 -18 -31 0 -7 -7 -23 -16 -35
-19 -28 -15 -185 7 -246 18 -52 111 -147 169 -173 120 -54 97 -52 457 -54
l338 -2 0 68 0 68 -250 -2 c-137 -1 -268 -4 -290 -7 -39 -5 -41 -4 -80 48 -21
29 -50 64 -64 78 -13 14 -47 54 -76 90 -29 36 -71 85 -94 109 -22 23 -41 47
-41 52 0 5 268 8 680 7 l681 -3 0 -450 1 -450 -604 2 c-516 2 -609 4 -647 17
-24 9 -54 16 -67 16 -13 0 -40 7 -61 16 -73 32 -98 43 -113 48 -22 8 -45 24
-130 87 -166 124 -253 259 -286 444 -23 134 -14 288 22 357 8 14 14 33 14 40
0 8 11 35 25 59 14 24 28 51 32 59 22 46 174 191 223 213 8 4 29 16 45 27 17
11 37 22 45 26 8 3 29 11 45 18 158 67 172 69 800 76 718 7 700 8 700 -7z
m490 -546 l0 -558 580 0 580 1 1 557 2 557 242 0 243 1 -7 -100 c-8 -140 -9
-1002 -1 -1016 4 -6 19 -9 36 -5 36 7 1109 9 1116 2 7 -7 -17 -41 -62 -89 -42
-46 -171 -216 -204 -270 l-23 -37 -671 2 -672 3 4 181 c3 183 -3 222 -30 172
-14 -26 -116 -166 -136 -186 -7 -7 -13 -16 -13 -20 0 -4 -16 -25 -36 -47 -19
-22 -42 -52 -50 -67 -8 -15 -24 -30 -37 -33 -12 -3 -317 -4 -677 -3 l-655 3 2
25 c1 14 2 352 3 751 0 399 2 728 4 730 3 2 107 4 233 4 l228 0 0 -558z m-575
156 c0 -33 -6 -50 -25 -68 -27 -28 -80 -34 -109 -12 -17 12 -15 16 19 58 48
58 74 77 96 72 15 -4 19 -15 19 -50z m-2480 -2187 c0 -25 -6 -48 -14 -55 -8
-7 -17 -28 -21 -49 -4 -20 -10 -41 -15 -47 -8 -10 -14 -66 -11 -100 2 -20 2
-20 11 0 5 11 9 30 9 43 1 13 8 30 16 38 8 9 15 26 15 39 0 13 5 27 10 30 6 3
10 15 10 26 0 31 28 34 56 6 21 -21 24 -32 19 -56 -3 -16 -13 -35 -21 -42 -15
-13 -19 -85 -5 -107 9 -14 21 29 21 74 0 29 28 64 52 64 23 0 25 -52 3 -70 -8
-7 -15 -29 -15 -49 -1 -20 -7 -54 -15 -76 -20 -55 -20 -290 0 -325 8 -14 15
-36 15 -50 0 -14 7 -34 15 -44 8 -11 15 -28 15 -38 0 -10 4 -18 9 -18 5 0 13
-10 16 -21 31 -95 242 -311 352 -358 11 -6 24 -15 28 -20 3 -6 14 -11 24 -11
10 0 24 -7 31 -15 7 -8 21 -15 31 -15 9 0 24 -7 33 -15 8 -8 27 -15 43 -15 16
0 37 -6 48 -14 11 -7 53 -16 93 -20 41 -3 82 -11 92 -16 27 -15 118 -12 174 5
27 8 65 15 83 15 19 0 41 7 49 15 9 8 24 15 35 15 20 0 102 47 160 92 20 15
40 28 43 28 3 0 39 34 81 76 50 52 80 74 90 70 14 -5 14 -9 1 -34 -8 -15 -35
-47 -60 -70 -26 -24 -39 -42 -30 -42 18 0 30 9 95 72 36 36 56 48 79 48 49 0
48 -24 -6 -93 -27 -34 -59 -72 -71 -83 -28 -26 -31 -49 -5 -35 28 15 114 104
149 155 41 58 73 63 73 11 0 -19 -4 -35 -10 -35 -10 0 -50 -36 -50 -45 0 -11
-171 -165 -183 -165 -5 0 -23 -11 -40 -24 -18 -14 -43 -29 -57 -35 -14 -6 -32
-15 -40 -20 -49 -28 -80 -41 -98 -41 -11 0 -25 -7 -32 -15 -7 -8 -29 -15 -49
-15 -20 0 -45 -7 -55 -15 -11 -8 -34 -15 -50 -15 -17 0 -51 -7 -75 -16 -64
-22 -433 -22 -467 1 -13 8 -39 15 -57 15 -19 0 -40 7 -47 15 -7 8 -23 15 -35
15 -12 0 -28 7 -35 15 -7 8 -19 15 -27 15 -8 0 -35 14 -60 30 -24 17 -47 30
-51 30 -4 0 -22 14 -40 30 -18 17 -36 30 -40 30 -25 2 -202 198 -225 250 -4 8
-16 29 -27 45 -11 17 -23 37 -26 45 -3 8 -12 29 -20 47 -8 17 -14 38 -14 46 0
8 -7 20 -15 27 -8 7 -15 27 -15 44 0 17 -7 40 -15 50 -8 11 -15 33 -15 49 0
15 -5 38 -12 50 -7 12 -15 49 -19 82 -4 33 -12 89 -19 125 -12 68 -6 205 11
216 5 3 9 31 9 63 0 35 6 65 15 77 8 10 15 33 15 50 0 17 7 37 15 44 8 7 15
23 15 36 0 19 5 24 25 24 23 0 25 -4 25 -44z m172 -43 c18 -16 25 -43 11 -43
-12 0 -43 33 -43 47 0 17 10 17 32 -4z m117 -138 c30 -27 95 -89 143 -136 49
-48 123 -109 164 -135 42 -27 93 -64 114 -81 20 -18 40 -33 44 -33 3 0 25 -13
48 -30 22 -16 46 -30 53 -30 7 0 20 -9 29 -19 10 -11 30 -22 44 -26 15 -4 47
-20 71 -36 25 -16 54 -29 66 -29 12 0 33 -8 46 -19 39 -30 203 -94 310 -120
41 -10 84 -23 94 -29 11 -6 36 -14 56 -17 21 -3 42 -12 49 -20 7 -8 21 -15 31
-15 11 0 19 -5 19 -11 0 -7 -9 -9 -22 -6 -15 4 -33 -3 -59 -23 -20 -17 -41
-30 -46 -30 -5 0 -22 -14 -38 -30 -16 -17 -37 -30 -47 -30 -10 0 -18 -4 -18
-9 0 -5 -9 -13 -20 -16 -11 -3 -20 -12 -20 -20 0 -12 -136 -84 -190 -99 -14
-4 -41 -15 -60 -23 -37 -17 -139 -27 -177 -18 -13 3 -23 11 -23 19 0 14 -60
26 -127 26 -35 0 -136 31 -186 56 -15 8 -36 12 -46 9 -13 -4 -24 3 -35 20 -9
14 -23 25 -31 25 -8 0 -34 18 -56 40 -23 22 -50 40 -60 40 -11 0 -19 5 -19 10
0 6 5 10 10 10 6 0 10 7 10 15 0 8 -9 15 -20 15 -11 0 -20 5 -20 10 0 6 -8 10
-17 8 -14 -2 -19 5 -21 32 -4 41 -18 61 -40 58 -10 -2 -18 9 -24 32 -5 19 -17
42 -26 50 -10 8 -30 49 -45 90 -25 68 -27 89 -28 225 -1 97 3 161 11 180 7 17
13 60 15 97 4 105 6 105 94 23z"/>
<path d="M2950 7390 c-19 -4 -33 -8 -30 -10 3 -1 66 -5 140 -10 144 -9 308
-31 405 -54 109 -27 150 -38 170 -47 11 -4 49 -18 84 -30 35 -12 75 -28 90
-35 14 -8 29 -14 34 -14 7 0 189 -89 232 -113 12 -7 69 -41 129 -77 59 -36
151 -88 204 -116 53 -27 117 -63 142 -79 59 -39 82 -53 100 -62 8 -4 20 -11
25 -15 6 -5 58 -45 118 -89 173 -130 356 -323 500 -527 20 -28 37 -56 37 -62
0 -5 6 -13 13 -17 7 -4 18 -19 24 -33 10 -23 11 -24 19 -6 5 13 2 23 -9 31
-10 7 -17 20 -17 28 0 9 -13 39 -30 65 -16 27 -30 52 -30 56 0 3 -20 35 -45
72 -25 36 -45 67 -45 70 0 4 -44 65 -123 169 -72 96 -229 258 -317 328 -36 28
-69 57 -75 63 -34 38 -319 224 -343 224 -6 0 -12 4 -14 9 -2 7 -98 54 -183 91
-11 5 -41 18 -67 29 -26 12 -54 21 -62 21 -8 0 -17 4 -20 9 -3 5 -23 12 -43
16 -21 4 -42 10 -48 15 -10 7 -43 16 -150 40 -27 6 -64 16 -82 21 -17 5 -67
14 -110 20 -43 5 -100 14 -128 19 -59 10 -444 11 -495 0z"/>
<path d="M2625 7300 c-22 -4 -76 -13 -120 -20 -44 -6 -84 -16 -89 -21 -6 -5
-16 -9 -24 -9 -8 0 -30 -7 -50 -16 -21 -8 -50 -21 -67 -28 -51 -22 -238 -116
-267 -134 -14 -9 -48 -30 -74 -46 -27 -16 -53 -33 -59 -38 -5 -4 -57 -42 -115
-85 -123 -91 -360 -324 -446 -438 -125 -167 -123 -183 6 -55 50 50 139 126
198 170 59 44 112 83 117 88 9 8 78 49 130 78 42 24 162 83 210 103 28 12 58
26 67 31 10 6 23 10 30 10 7 1 31 9 53 20 22 11 46 19 53 20 7 0 20 4 30 9 9
6 51 20 92 32 41 11 94 27 118 35 23 8 55 14 71 14 15 0 31 3 35 7 8 8 80 30
146 43 25 5 61 14 80 19 149 41 512 74 661 60 195 -18 274 -29 359 -50 124
-30 163 -34 158 -18 -3 8 -15 16 -29 17 -13 2 -29 8 -34 12 -6 5 -30 16 -55
25 -107 38 -218 75 -260 85 -141 36 -173 43 -255 56 -49 8 -121 19 -160 24
-83 11 -453 11 -510 0z m-20 -142 c15 -13 -12 -26 -72 -34 -82 -10 -110 10
-55 40 29 15 108 12 127 -6z m-185 -4 c0 -24 -52 -74 -77 -74 -13 0 -23 2 -23
4 0 2 17 22 38 44 40 42 62 52 62 26z m-177 -99 c1 -5 -13 -11 -30 -13 -34 -3
-46 13 -15 21 24 7 43 4 45 -8z"/>
<path d="M1835 7074 c-22 -13 -49 -28 -60 -33 -11 -5 -37 -21 -58 -35 -21 -14
-40 -26 -42 -26 -8 0 -229 -151 -240 -164 -5 -6 -32 -29 -60 -50 -64 -50 -250
-236 -301 -301 -21 -27 -47 -59 -56 -70 -66 -80 -204 -302 -265 -429 -25 -50
-48 -98 -52 -106 -5 -9 -12 -30 -15 -48 -4 -17 -12 -34 -17 -37 -5 -4 -9 -13
-9 -22 0 -8 -6 -29 -14 -46 -12 -29 -39 -116 -67 -217 -19 -69 -45 -215 -58
-325 -16 -134 -23 -373 -13 -430 l9 -50 6 35 c3 19 13 98 22 175 26 218 75
439 115 515 4 9 11 30 14 48 4 17 12 34 17 37 5 4 9 13 9 21 0 14 53 135 81
187 5 10 24 44 40 75 17 31 49 86 71 122 21 36 44 74 51 85 7 11 14 22 18 25
3 3 14 23 26 45 153 297 296 498 498 698 103 103 292 257 314 257 6 0 14 6 18
13 9 14 37 32 71 47 12 5 22 14 22 20 0 16 -32 10 -75 -16z"/>
<path d="M3125 7067 l-50 -13 125 -8 c119 -7 300 -33 385 -56 124 -33 217 -62
272 -86 17 -8 35 -14 40 -14 5 0 27 -9 49 -19 21 -10 68 -33 104 -50 228 -108
451 -267 661 -471 80 -78 274 -326 317 -406 7 -13 17 -24 23 -24 14 0 11 27
-6 44 -8 8 -15 24 -15 35 0 11 -5 23 -11 26 -5 4 -14 17 -20 28 -9 23 -14 31
-61 105 -16 24 -28 45 -28 48 0 8 -182 247 -224 294 -45 50 -191 195 -254 252
-79 72 -191 139 -272 163 -14 4 -29 11 -35 15 -15 10 -176 60 -290 89 -22 6
-70 15 -105 21 -36 5 -85 14 -110 19 -78 17 -438 22 -495 8z"/>
<path d="M1925 6760 c-3 -5 -31 -22 -61 -36 -143 -68 -454 -303 -589 -445
-160 -170 -225 -260 -281 -394 -7 -16 -19 -46 -27 -65 -13 -31 -23 -62 -60
-180 -6 -19 -14 -55 -18 -80 -4 -25 -13 -70 -19 -100 -26 -137 -32 -184 -41
-325 -8 -143 -6 -245 8 -365 l7 -55 7 50 c4 28 8 91 8 140 1 112 41 351 76
460 7 22 21 67 31 100 10 33 22 64 26 70 4 5 8 15 8 23 0 8 6 28 14 45 8 18
24 55 36 82 35 81 82 175 123 245 38 64 107 170 117 180 3 3 17 23 32 45 15
22 39 54 54 70 14 17 44 52 67 80 97 115 227 234 382 348 50 37 95 70 100 75
6 4 18 11 28 15 9 3 17 11 17 17 0 13 -37 13 -45 0z"/>
<path d="M835 5663 c-4 -18 -11 -33 -16 -33 -4 0 -13 -18 -19 -40 -6 -21 -15
-42 -20 -45 -6 -3 -10 -14 -10 -23 0 -9 -11 -46 -24 -82 -13 -36 -34 -99 -45
-140 -12 -41 -26 -90 -32 -108 -32 -100 -61 -338 -66 -546 -6 -275 14 -423 84
-611 125 -337 368 -672 683 -946 80 -70 195 -159 204 -159 16 0 1 22 -52 76
-81 83 -173 190 -214 249 -82 118 -118 174 -151 237 -20 37 -41 75 -46 85 -5
10 -24 50 -41 88 -18 39 -41 88 -51 111 -10 23 -19 48 -19 56 0 8 -3 18 -6 21
-9 9 -43 108 -44 125 0 8 -7 28 -14 45 -8 18 -19 55 -25 82 -22 109 -31 146
-40 163 -5 9 -12 37 -16 62 -4 24 -11 51 -15 60 -11 21 -29 112 -41 200 -5 41
-15 91 -21 110 -8 23 -12 124 -12 300 -1 271 7 352 50 506 8 28 14 66 14 85 0
19 5 40 11 46 6 6 9 21 6 34 -4 22 -5 21 -12 -8z m-36 -1503 c23 -99 6 -129
-39 -68 -20 27 -24 46 -28 141 -4 99 -3 109 12 104 11 -4 19 0 24 11 4 10 10
-16 14 -63 4 -44 11 -100 17 -125z m29 -156 c1 -16 8 -39 14 -51 15 -31 4 -39
-14 -11 -20 31 -31 101 -15 95 7 -2 13 -17 15 -33z"/>
<path d="M1130 3687 c0 -13 7 -30 15 -37 8 -7 15 -17 15 -22 0 -6 30 -60 67
-122 151 -253 382 -522 573 -666 47 -35 87 -67 90 -70 5 -6 73 -39 135 -66
139 -58 348 -114 510 -135 191 -25 230 -28 410 -27 199 0 276 8 200 21 -22 4
-71 7 -110 7 -196 0 -576 88 -785 182 -106 48 -287 140 -314 161 -6 4 -47 31
-91 60 -44 28 -82 54 -85 57 -3 3 -36 30 -75 60 -114 88 -306 286 -404 417
-50 67 -91 126 -91 131 0 6 -7 12 -15 16 -8 3 -15 12 -15 19 0 8 -7 20 -15 27
-13 11 -15 9 -15 -13z"/>
<path d="M810 3611 c0 -12 5 -21 10 -21 6 0 10 -8 10 -17 1 -10 12 -36 25 -58
14 -22 29 -49 34 -60 5 -11 21 -37 35 -58 14 -21 26 -40 26 -44 0 -3 14 -22
30 -43 17 -21 30 -41 30 -44 0 -11 130 -177 185 -236 217 -235 444 -410 701
-539 149 -74 209 -101 228 -101 8 0 17 -4 21 -9 3 -5 20 -13 37 -17 18 -3 39
-10 48 -15 8 -4 42 -15 75 -24 33 -9 83 -24 110 -32 28 -8 73 -19 100 -23 152
-25 188 -30 271 -39 97 -12 422 -15 411 -5 -8 8 -146 32 -232 40 -127 11 -429
80 -460 104 -5 4 -26 11 -45 15 -19 4 -41 11 -50 16 -8 5 -37 18 -65 29 -121
51 -313 154 -400 214 -33 23 -80 52 -105 64 -25 13 -72 39 -105 58 -33 19 -69
39 -80 45 -50 25 -266 170 -294 197 -10 9 -40 36 -67 59 -77 65 -155 142 -220
218 -74 86 -208 264 -217 288 -3 9 -11 17 -17 17 -5 0 -10 6 -10 14 0 8 -4 18
-10 21 -5 3 -10 -3 -10 -14z"/>
<path d="M4909 3248 c-238 -224 -476 -385 -714 -483 -22 -9 -53 -23 -68 -31
-16 -8 -36 -14 -46 -14 -9 0 -26 -7 -37 -15 -10 -8 -28 -15 -39 -15 -11 0 -33
-7 -49 -15 -15 -8 -37 -15 -48 -15 -11 0 -34 -7 -51 -14 -18 -8 -54 -19 -82
-25 -54 -10 -128 -30 -215 -56 -30 -9 -79 -21 -109 -26 -29 -5 -62 -14 -72
-19 -10 -6 -35 -10 -56 -10 -21 0 -67 -8 -103 -17 -94 -24 -529 -24 -650 0
-152 30 -234 49 -275 63 -48 17 -65 18 -65 4 0 -5 12 -13 27 -16 15 -4 34 -13
41 -21 7 -7 21 -13 31 -13 9 0 21 -4 27 -10 11 -11 237 -87 319 -107 267 -65
449 -87 665 -80 85 2 192 9 237 15 97 12 224 41 238 53 5 5 15 9 23 9 7 0 34
9 60 21 26 11 63 27 82 35 19 8 42 19 50 23 200 107 358 210 470 307 73 64
128 114 172 157 70 70 233 259 241 280 3 9 11 17 17 17 5 0 10 6 10 14 0 8 7
16 15 20 16 6 21 26 7 26 -4 0 -28 -19 -53 -42z m-930 -684 c3 -2 0 -9 -6 -15
-16 -16 -47 -7 -51 15 -3 16 0 18 24 12 16 -4 31 -10 33 -12z m-166 -44 c31 0
57 -4 57 -10 0 -21 -52 -43 -105 -44 -30 0 -55 -3 -55 -7 0 -7 -74 -33 -127
-44 -25 -5 -33 -3 -33 8 0 17 41 37 76 37 20 0 24 4 20 18 -3 9 -2 22 2 29 8
13 57 22 87 17 11 -2 46 -4 78 -4z"/>
<path d="M3686 2502 c-3 -6 -1 -14 5 -17 15 -10 25 3 12 16 -7 7 -13 7 -17 1z"/>
<path d="M4270 2530 c-12 -8 -11 -10 8 -10 12 0 22 5 22 10 0 13 -11 13 -30 0z"/>
<path d="M1620 4890 c0 -12 67 -12 95 0 14 6 4 9 -37 9 -33 1 -58 -3 -58 -9z"/>
<path d="M3585 4890 c3 -5 39 -10 80 -10 41 0 77 5 80 10 4 6 -25 10 -80 10
-55 0 -84 -4 -80 -10z"/>
<path d="M5235 4890 c3 -5 31 -10 61 -10 30 0 54 5 54 10 0 6 -27 10 -61 10
-37 0 -58 -4 -54 -10z"/>
<path d="M836 2849 c-3 -8 -7 -30 -9 -49 -3 -19 -11 -55 -17 -80 -18 -67 -7
-372 14 -402 9 -12 16 -29 16 -38 0 -23 74 -163 114 -216 72 -94 146 -164 146
-139 0 7 -43 68 -52 76 -12 8 -108 201 -108 215 0 6 -7 25 -15 40 -8 16 -15
43 -15 60 0 16 -5 35 -12 42 -19 19 -30 107 -37 304 -5 170 -13 224 -25 187z"/>
<path d="M1110 1993 c-1 -48 219 -240 296 -259 16 -4 38 -13 49 -20 11 -8 43
-14 71 -14 37 0 54 -4 58 -15 6 -16 75 -20 111 -6 14 6 1 10 -44 13 -37 3 -67
10 -69 16 -2 7 -13 12 -24 12 -20 0 -43 9 -157 63 -67 31 -177 110 -223 158
-15 16 -30 29 -34 29 -4 0 -13 8 -20 18 -8 10 -13 12 -14 5z"/>
<path d="M980 1950 c0 -19 165 -178 230 -221 36 -24 101 -61 145 -82 44 -21
88 -43 97 -48 10 -5 25 -9 33 -9 8 0 42 -9 76 -21 44 -15 70 -19 97 -13 l37 7
-45 9 c-25 5 -59 16 -77 24 -17 8 -35 14 -40 14 -15 0 -156 74 -256 135 -54
33 -107 65 -119 72 -24 13 -124 98 -147 126 -17 19 -31 22 -31 7z"/>
<path d="M2490 1890 c0 -5 -7 -10 -15 -10 -9 0 -18 -7 -21 -15 -4 -8 -12 -15
-19 -15 -7 0 -17 -6 -23 -13 -6 -7 -46 -30 -89 -51 -43 -20 -90 -44 -105 -52
-14 -8 -34 -14 -45 -14 -10 0 -27 -7 -37 -15 -11 -8 -36 -15 -56 -15 -20 0
-41 -5 -46 -10 -16 -16 -136 -31 -287 -37 -100 -3 -137 -8 -134 -16 6 -19 99
-29 267 -31 175 -1 210 6 339 67 130 62 338 237 281 237 -5 0 -10 -4 -10 -10z"/>
<path d="M1540 1660 c-12 -8 -11 -10 8 -10 12 0 22 5 22 10 0 13 -11 13 -30 0z"/>
<path d="M6825 4890 c61 -13 1295 -12 1295 0 0 7 -222 10 -667 9 -370 -1 -650
-5 -628 -9z"/>
<path d="M2620 3950 c-21 -16 -41 -20 -127 -20 -58 0 -104 4 -108 10 -4 6 -11
7 -17 4 -20 -12 -149 -16 -180 -5 -22 8 -38 7 -62 -3 -23 -10 -48 -11 -95 -5
-77 11 -149 -9 -185 -51 -28 -34 -40 -120 -30 -212 8 -74 35 -107 109 -136 43
-17 61 -18 130 -10 44 5 145 7 225 3 208 -8 488 -6 508 4 19 9 149 7 202 -3
30 -6 44 -3 78 20 23 15 42 31 42 36 0 21 56 6 86 -23 39 -38 90 -49 170 -38
32 4 65 4 74 -1 8 -4 47 -6 85 -3 63 5 94 6 168 3 79 -3 105 1 111 16 4 9 13
13 23 10 11 -4 29 5 48 22 39 36 80 36 107 -2 35 -47 62 -54 186 -49 62 2 125
8 139 14 17 6 30 6 38 -1 23 -19 186 -29 217 -14 16 8 39 11 58 8 20 -4 45 0
71 11 32 15 44 16 65 7 35 -17 81 -15 114 5 27 15 29 15 55 -5 33 -27 77 -28
116 -5 28 17 31 17 60 0 34 -19 60 -22 75 -8 5 6 31 6 64 0 34 -5 58 -5 64 1
15 15 37 12 58 -7 17 -15 23 -15 90 0 58 12 76 13 88 3 8 -6 50 -13 92 -15 69
-2 78 0 88 18 6 12 17 21 25 21 9 0 24 5 34 11 24 15 59 6 95 -26 33 -28 90
-33 173 -14 37 9 58 8 93 -2 61 -17 96 -18 158 -1 44 13 59 13 92 2 27 -9 70
-11 137 -7 54 3 123 2 153 -3 50 -7 60 -5 109 21 60 32 102 37 121 14 13 -16
70 -21 70 -6 0 5 18 11 40 15 32 5 46 2 69 -15 26 -19 32 -20 64 -8 30 10 40
10 70 -4 45 -22 154 -22 207 -1 33 13 46 14 69 4 22 -9 38 -9 71 1 32 10 43
10 49 1 5 -8 44 -14 102 -17 52 -3 101 -6 109 -7 96 -9 163 33 185 118 15 59
11 110 -9 133 -12 13 -15 29 -10 62 5 39 2 48 -25 77 -16 17 -39 32 -49 32
-11 0 -25 6 -31 14 -21 25 -60 28 -104 7 -47 -21 -173 -36 -182 -21 -9 14 -91
12 -114 -2 -15 -9 -30 -7 -74 11 -30 12 -63 22 -74 20 -10 -1 -27 2 -37 6 -13
6 -23 3 -32 -9 -7 -10 -31 -22 -55 -27 -34 -8 -45 -7 -60 7 -12 11 -27 14 -49
9 -19 -4 -36 -2 -45 5 -8 6 -19 9 -25 5 -6 -4 -17 -1 -25 5 -27 22 -154 3
-268 -41 -45 -17 -51 -17 -79 -3 -35 18 -81 11 -117 -17 -22 -18 -26 -18 -45
-4 -39 29 -70 36 -118 30 -38 -5 -55 -3 -81 12 -41 24 -119 23 -169 -2 -23
-11 -43 -15 -55 -10 -10 4 -30 7 -46 6 -17 -2 -29 3 -33 13 -4 11 -18 15 -50
14 -36 -2 -54 -11 -97 -45 -28 -24 -58 -43 -66 -43 -8 0 -26 11 -41 25 -37 35
-158 60 -203 41 -23 -9 -61 -12 -127 -9 -52 3 -107 5 -122 4 -32 0 -35 6 -10
25 15 12 14 13 -11 14 -15 0 -30 -6 -33 -14 -4 -10 -29 -13 -112 -11 -59 1
-115 6 -124 10 -10 4 -80 -3 -157 -15 -112 -18 -148 -20 -187 -12 -27 6 -77 8
-111 5 -40 -4 -63 -2 -63 5 0 14 -72 21 -89 8 -24 -19 -79 -33 -93 -25 -23 15
-74 10 -92 -10 -25 -27 -62 -32 -87 -10 -31 27 -77 34 -98 15 -10 -9 -23 -16
-30 -16 -7 0 -19 -16 -27 -36 l-15 -35 -52 38 c-29 20 -54 40 -57 44 -10 13
-196 26 -310 22 -109 -4 -117 -6 -152 -34 l-36 -28 -25 19 c-50 40 -74 42
-117 12 -21 -15 -44 -39 -51 -55 -17 -41 -27 -42 -43 -4 -24 58 -64 87 -116
86 -87 -2 -305 3 -322 7 -10 3 -18 12 -18 20 0 19 -10 17 -40 -6z m-558 -75
c26 -18 35 -30 31 -41 -5 -13 -16 -15 -59 -10 -65 7 -79 2 -99 -37 -19 -38
-19 -78 -1 -122 14 -33 18 -35 60 -35 46 0 46 0 46 34 0 28 -4 35 -22 38 -15
2 -24 11 -26 26 -3 20 0 22 46 22 57 0 62 -7 62 -75 0 -60 -15 -95 -40 -95
-12 0 -30 -5 -40 -10 -27 -14 -94 8 -127 42 -24 25 -26 34 -26 112 0 94 4 102
67 148 48 35 80 35 128 3z m486 19 c15 -4 22 -14 22 -30 0 -30 -27 -44 -77
-41 -37 2 -38 1 -38 -33 0 -35 0 -35 42 -32 34 2 43 -1 48 -18 10 -31 -4 -42
-49 -38 -41 3 -41 3 -44 -34 l-3 -38 54 0 c37 0 59 -5 67 -15 23 -27 -2 -36
-91 -33 l-84 3 0 150 0 150 60 6 c33 3 62 6 65 7 3 1 15 -1 28 -4z m240 -22
c6 -38 -15 -53 -67 -50 l-46 3 -3 -39 -3 -39 40 7 c29 4 44 2 56 -10 25 -25 1
-46 -49 -42 -41 3 -41 3 -44 -34 l-3 -37 58 -3 c50 -3 58 -6 61 -24 4 -27 -7
-30 -96 -26 l-73 4 3 151 3 152 60 6 c89 9 100 7 103 -19z m267 -132 l0 -155
-33 0 c-37 0 -42 7 -86 108 -37 83 -49 75 -41 -27 7 -81 7 -83 -16 -89 -43
-11 -49 6 -48 142 0 159 3 171 39 171 25 0 32 -8 60 -67 72 -153 75 -157 78
-130 2 14 -1 56 -6 93 -11 76 3 118 36 112 15 -3 17 -21 17 -158z m240 25 l0
-130 52 -3 c52 -3 76 -23 53 -46 -10 -10 -155 -10 -172 0 -4 3 -8 75 -8 160
l0 155 38 -3 37 -3 0 -130z m300 95 c0 -33 -2 -35 -35 -37 -19 -1 -43 -2 -52
-2 -12 -1 -18 -9 -18 -25 0 -31 15 -41 60 -41 31 0 35 -3 38 -29 4 -28 3 -29
-36 -24 -50 7 -64 -2 -60 -38 3 -27 6 -29 55 -32 53 -3 85 -24 66 -43 -5 -5
-47 -9 -94 -7 l-84 3 0 150 0 150 35 6 c19 4 55 6 80 5 44 -1 45 -1 45 -36z
m181 19 c3 -5 15 -9 27 -10 33 0 64 -47 68 -99 5 -93 0 -118 -32 -155 -31 -35
-32 -35 -110 -35 -68 0 -79 2 -80 18 -5 95 -4 251 2 269 6 15 18 23 41 25 41
4 77 -2 84 -13z m312 12 c11 -6 12 -33 6 -126 -8 -133 -7 -135 64 -135 38 0
42 -2 42 -24 0 -29 -16 -36 -78 -36 -97 0 -92 -9 -92 171 0 158 0 159 23 159
12 0 28 -4 35 -9z m199 -3 c6 -7 9 -77 9 -156 -1 -117 -4 -145 -17 -152 -8 -5
-20 -6 -25 -2 -16 10 -26 296 -12 310 15 15 33 15 45 0z m251 -8 c13 -11 22
-27 20 -37 -3 -15 -14 -18 -60 -18 -77 0 -91 -15 -92 -98 -1 -78 12 -97 65
-97 38 0 39 1 39 34 0 28 -4 35 -26 40 -16 4 -24 12 -22 23 4 23 49 36 82 23
26 -10 27 -12 24 -81 -2 -52 -7 -74 -18 -79 -77 -38 -84 -39 -125 -16 -59 33
-78 66 -83 141 -4 56 -1 70 22 110 15 25 34 45 42 45 8 0 17 7 20 15 9 22 83
19 112 -5z m142 -50 l5 -65 45 0 45 0 5 65 c4 50 9 66 22 68 29 5 37 -30 39
-172 2 -141 -3 -161 -37 -154 -16 3 -20 15 -24 68 l-5 65 -47 3 -48 3 0 -66
c0 -69 -12 -86 -45 -67 -15 8 -18 31 -20 153 -3 151 2 172 39 167 18 -3 22
-12 26 -68z m401 53 c20 -20 6 -48 -26 -51 -17 -2 -34 -7 -39 -12 -5 -5 -9
-62 -10 -127 -1 -115 -2 -118 -24 -121 -45 -7 -50 9 -44 133 3 64 1 115 -4
116 -45 4 -57 8 -64 19 -8 13 -2 41 11 50 14 10 189 4 200 -7z m374 -142 c0
-129 -2 -154 -16 -161 -35 -19 -57 0 -89 79 -18 43 -41 83 -52 90 -19 12 -20
10 -14 -26 19 -130 19 -131 -4 -143 -45 -24 -50 -11 -50 139 0 77 3 146 6 155
4 9 18 16 33 16 28 0 33 -7 86 -122 38 -83 49 -75 41 26 -6 75 -5 86 11 95 44
26 48 15 48 -148z m244 142 c21 -12 31 -26 31 -42 0 -23 -2 -24 -60 -18 -51 6
-63 4 -80 -13 -27 -27 -36 -86 -19 -135 13 -37 17 -40 57 -43 32 -2 42 0 42
12 0 8 3 22 6 30 5 12 -3 19 -25 27 -20 7 -31 17 -29 27 4 19 54 34 86 27 22
-5 23 -9 20 -88 -3 -78 -4 -82 -27 -85 -14 -2 -34 -10 -46 -18 -34 -22 -109
17 -135 72 -72 146 53 318 179 247z m339 -3 c13 -11 22 -27 20 -37 -3 -15 -14
-18 -55 -18 -52 0 -81 -14 -69 -34 4 -6 31 -22 61 -36 36 -16 59 -34 70 -55
15 -28 14 -34 -4 -75 -14 -31 -26 -45 -39 -45 -11 0 -25 -7 -32 -15 -16 -19
-39 -19 -64 0 -11 8 -30 15 -42 15 -17 0 -24 8 -29 30 -4 16 -4 34 0 40 9 15
41 12 55 -5 9 -11 27 -15 54 -13 38 3 41 5 41 33 0 25 -5 31 -38 40 -21 6 -53
23 -72 38 -28 22 -35 35 -35 61 0 74 120 125 178 76z m247 -2 c72 -48 94 -183
40 -254 -15 -19 -37 -39 -50 -44 -13 -5 -26 -14 -30 -19 -7 -13 -42 -15 -47
-3 -1 5 -16 15 -32 23 -45 22 -66 72 -66 157 0 60 4 79 21 100 50 64 106 77
164 40z m174 8 c8 -9 9 -49 5 -129 l-7 -116 24 -5 c13 -3 38 -7 54 -8 25 -3
30 -8 30 -28 0 -30 -16 -34 -101 -25 l-64 7 0 152 c0 84 3 156 7 159 11 12 40
8 52 -7z m201 -109 c0 -82 4 -127 12 -135 16 -16 65 -15 75 1 4 6 10 66 13
131 5 129 13 143 51 105 21 -21 22 -22 36 -3 12 16 28 19 109 19 101 1 121 -7
109 -44 -4 -13 -17 -21 -38 -23 l-32 -3 -5 -125 -5 -125 -35 0 -35 0 4 122 c3
135 7 128 -69 136 -25 2 -25 2 -30 -104 -5 -110 -13 -132 -55 -150 -11 -5 -27
-14 -36 -21 -17 -12 -25 -10 -73 20 -48 29 -62 66 -70 186 -8 120 -2 136 45
136 l29 0 0 -123z m479 114 c11 -7 15 -42 15 -160 2 -158 1 -161 -45 -161 -18
0 -19 9 -19 153 0 168 8 194 49 168z m263 -25 c49 -48 67 -126 45 -196 -19
-57 -34 -75 -84 -102 -34 -19 -36 -19 -74 0 -47 23 -70 52 -88 109 -22 68 12
172 66 205 48 28 95 23 135 -16z m192 -39 c13 -29 31 -71 41 -94 10 -23 22
-40 27 -37 5 3 8 49 6 102 -3 94 -2 97 19 100 33 5 38 -22 35 -180 -3 -119 -5
-137 -20 -140 -32 -7 -61 4 -67 26 -16 55 -67 157 -75 150 -3 -3 -5 -45 -5
-92 0 -81 -2 -87 -21 -90 -38 -5 -47 20 -35 96 6 37 8 99 4 137 -5 58 -4 70
12 81 27 20 52 1 79 -59z m335 57 c26 -13 32 -21 29 -43 -3 -23 -7 -26 -33
-22 -75 9 -90 7 -93 -14 -2 -15 7 -25 33 -38 20 -9 41 -17 48 -17 23 0 67 -57
67 -87 -1 -37 -25 -64 -82 -92 -44 -21 -50 -21 -75 -8 -15 9 -36 18 -45 21
-12 4 -18 16 -18 37 0 29 2 31 28 24 15 -4 46 -9 70 -12 l43 -5 -3 33 c-2 26
-9 34 -36 43 -18 6 -48 24 -67 39 -46 36 -46 71 -2 120 37 41 82 48 136 21z
m-5664 -4 c3 -5 15 -10 25 -10 46 0 69 -100 30 -135 -28 -25 -25 -45 11 -95
29 -40 30 -44 15 -56 -29 -21 -53 -4 -87 62 -18 35 -36 64 -40 64 -21 0 -30
-30 -20 -67 6 -21 11 -42 11 -46 0 -13 -44 -25 -56 -16 -12 10 -18 256 -8 292
4 13 17 17 59 17 30 0 57 -4 60 -10z m2902 -2 c4 -7 8 -75 9 -151 1 -127 -1
-139 -18 -148 -43 -23 -48 -9 -48 149 0 82 3 152 7 155 11 11 41 8 50 -5z"/>
<path d="M3723 3818 c-6 -7 -10 -51 -9 -98 l1 -85 30 0 c22 0 35 8 52 34 13
19 23 44 23 57 0 31 -31 94 -46 94 -7 0 -19 2 -27 5 -7 3 -19 0 -24 -7z"/>
<path d="M6194 3823 c-18 -13 -44 -70 -44 -97 0 -14 9 -41 21 -60 17 -30 27
-36 54 -36 18 0 39 7 46 17 17 19 19 147 4 162 -14 14 -68 23 -81 14z"/>
<path d="M7282 3807 c-17 -18 -22 -36 -22 -75 0 -69 21 -102 65 -102 44 0 65
33 65 103 0 87 -58 127 -108 74z"/>
<path d="M2207 3823 c-14 -26 -17 -67 -5 -74 34 -22 88 5 88 44 0 27 -70 52
-83 30z"/>
</g>
</svg>
