<?xml version="1.0" standalone="no"?>
<!DOCTYPE svg PUBLIC "-//W3C//DTD SVG 20010904//EN"
 "http://www.w3.org/TR/2001/REC-SVG-20010904/DTD/svg10.dtd">
<svg version="1.0" xmlns="http://www.w3.org/2000/svg"
 width="600.000000pt" height="600.000000pt" viewBox="0 0 600.000000 600.000000"
 preserveAspectRatio="xMidYMid meet">
<metadata>
Created by potrace 1.10, written by Peter Selinger 2001-2011
</metadata>
<g transform="translate(0.000000,600.000000) scale(0.100000,-0.100000)"
fill="#ffffff" stroke="none">
<path d="M3845 5260 c-22 -5 -68 -13 -101 -18 -34 -6 -71 -15 -82 -21 -12 -6
-31 -11 -44 -11 -13 0 -36 -7 -52 -15 -15 -8 -33 -15 -38 -15 -14 0 -190 -78
-228 -101 -8 -5 -22 -12 -30 -15 -63 -24 -223 -126 -340 -215 -185 -141 -372
-328 -513 -514 -34 -44 -64 -82 -67 -85 -7 -5 -42 -54 -111 -155 -19 -27 -40
-56 -46 -63 -7 -7 -13 -18 -13 -23 0 -5 -13 -28 -30 -51 -16 -22 -30 -47 -30
-55 0 -7 -3 -13 -7 -13 -11 0 -76 -137 -71 -149 2 -6 90 -12 216 -15 200 -4
214 -4 232 14 11 11 23 32 26 47 16 65 170 392 249 528 19 33 46 80 60 105
140 252 434 541 647 639 140 64 150 66 328 66 173 0 175 0 290 -54 45 -21 180
-155 202 -201 55 -116 68 -166 80 -319 10 -127 0 -334 -22 -456 -29 -158 -64
-314 -80 -365 -5 -14 -18 -59 -30 -100 -95 -324 -289 -789 -444 -1066 -71
-126 -213 -319 -294 -397 l-49 -48 -68 83 c-97 117 -276 294 -370 365 -152
114 -304 197 -492 267 -124 46 -167 51 -171 18 -2 -14 3 -24 15 -29 10 -3 37
-14 60 -24 23 -11 46 -19 50 -19 23 0 184 -105 245 -160 141 -128 249 -303
521 -845 33 -66 63 -122 66 -125 6 -5 21 -32 64 -115 12 -22 32 -51 44 -65 13
-14 23 -29 23 -35 0 -24 149 -166 265 -253 30 -23 154 -102 158 -102 4 0 28
-13 54 -28 104 -60 256 -116 413 -151 52 -12 115 -26 139 -32 44 -10 145 -21
361 -39 126 -11 348 -3 368 13 6 5 12 18 12 28 0 18 -9 19 -119 19 -106 0
-325 27 -371 46 -8 4 -31 10 -50 14 -216 48 -481 224 -671 446 -109 126 -419
555 -419 579 0 14 25 39 83 80 96 69 395 362 482 472 114 144 324 452 342 501
4 10 9 19 13 22 4 3 14 19 22 35 9 17 38 73 65 126 28 53 64 132 82 175 18 44
36 88 41 99 11 27 36 106 55 180 9 33 21 74 27 90 5 17 14 51 18 77 5 27 12
53 16 60 25 40 38 186 39 413 0 300 -14 372 -102 546 -82 159 -177 255 -323
326 -109 52 -111 53 -165 63 -27 5 -70 14 -95 19 -52 12 -276 12 -335 1z"/>
<path d="M1868 5237 c-50 -16 -119 -75 -142 -123 -10 -22 -25 -51 -32 -66 -8
-15 -14 -57 -14 -101 0 -111 30 -157 130 -202 62 -28 161 -26 224 4 92 45 165
163 166 271 0 46 -23 119 -50 156 -43 58 -189 90 -282 61z"/>
<path d="M1463 4472 c-6 -4 -50 -65 -97 -137 -47 -71 -90 -136 -96 -142 -6 -7
-15 -23 -20 -35 -6 -13 -14 -30 -20 -38 -51 -79 -195 -359 -254 -495 -45 -102
-76 -179 -76 -187 0 -6 -6 -24 -13 -41 -22 -52 -38 -100 -47 -137 -4 -19 -13
-48 -18 -65 -19 -57 -41 -140 -47 -180 -3 -22 -10 -53 -15 -70 -24 -82 -42
-305 -37 -450 6 -186 37 -378 73 -447 8 -14 14 -31 14 -37 0 -10 60 -139 83
-176 46 -75 138 -178 212 -235 96 -74 254 -142 365 -156 19 -3 77 -12 127 -20
130 -22 396 -7 498 28 17 5 46 14 65 18 123 28 390 168 390 204 0 22 -39 49
-69 48 -16 0 -47 -12 -68 -25 -50 -32 -189 -97 -207 -97 -8 0 -27 -7 -42 -15
-41 -21 -339 -21 -391 0 -19 8 -45 15 -57 15 -12 0 -31 7 -42 15 -10 8 -24 15
-31 15 -22 0 -128 78 -174 127 -112 119 -176 284 -186 473 -9 192 -2 413 16
480 7 25 12 64 11 87 0 23 6 58 15 79 8 20 15 53 15 73 1 20 7 54 15 76 8 22
15 49 15 59 0 11 7 44 16 75 8 31 19 70 24 86 20 74 53 181 60 196 5 9 12 33
15 53 4 20 11 38 15 41 5 3 11 23 15 45 4 22 11 42 16 46 5 3 9 12 9 21 0 15
19 65 46 116 8 16 14 33 14 39 0 5 7 26 16 46 8 21 21 51 28 67 7 17 19 46 28
65 8 19 21 51 30 70 29 69 50 115 59 130 5 8 12 22 15 30 3 8 9 22 14 30 5 8
27 52 50 97 22 45 45 85 50 88 6 3 10 17 10 31 l0 24 -212 0 c-117 0 -218 -4
-225 -8z"/>
</g>
</svg>
