<?xml version="1.0" standalone="no"?>
<!DOCTYPE svg PUBLIC "-//W3C//DTD SVG 20010904//EN"
 "http://www.w3.org/TR/2001/REC-SVG-20010904/DTD/svg10.dtd">
<svg version="1.0" xmlns="http://www.w3.org/2000/svg"
 width="160.000000pt" height="155.000000pt" viewBox="0 0 160.000000 155.000000"
 preserveAspectRatio="xMidYMid meet">
<metadata>
Created by potrace 1.10, written by Peter Selinger 2001-2011
</metadata>
<g transform="translate(0.000000,155.000000) scale(0.050000,-0.050000)"
fill="#ffffff" stroke="none">
<path d="M822 3053 c-163 -93 -127 -353 49 -353 127 0 209 85 209 217 0 119
-149 198 -258 136z"/>
<path d="M2020 3049 c-363 -101 -785 -475 -1026 -908 l-56 -101 167 0 167 0
64 155 c375 915 1227 1100 1178 255 -22 -389 -274 -1064 -506 -1355 l-92 -116
-129 140 c-198 214 -568 428 -631 365 -17 -17 3 -33 72 -63 206 -88 290 -191
520 -637 193 -374 369 -523 738 -624 212 -58 599 -68 610 -15 6 30 -9 35 -114
35 -354 0 -545 110 -821 472 -192 250 -188 221 -44 334 492 387 850 1236 715
1698 -93 323 -427 472 -812 365z"/>
<path d="M462 2392 c-263 -429 -368 -749 -370 -1124 l-2 -263 80 -157 c135
-264 348 -369 699 -342 242 18 504 149 436 217 -19 19 -47 12 -126 -32 -182
-99 -403 -90 -553 21 -249 186 -167 961 174 1653 l96 195 -165 0 -166 0 -103
-168z"/>
</g>
</svg>
