<?xml version="1.0" standalone="no"?>
<!DOCTYPE svg PUBLIC "-//W3C//DTD SVG 20010904//EN"
 "http://www.w3.org/TR/2001/REC-SVG-20010904/DTD/svg10.dtd">
<svg version="1.0" xmlns="http://www.w3.org/2000/svg"
 width="900.000000pt" height="900.000000pt" viewBox="0 0 900.000000 900.000000"
 preserveAspectRatio="xMidYMid meet">
<metadata>
Created by potrace 1.10, written by Peter Selinger 2001-2011
</metadata>
<g transform="translate(0.000000,900.000000) scale(0.100000,-0.100000)"
fill="#ffffff" stroke="none">
<path d="M5465 6870 c-27 -4 -77 -9 -110 -9 -33 -1 -82 -8 -109 -16 -27 -8
-63 -15 -80 -15 -17 0 -51 -6 -76 -14 -25 -8 -72 -22 -105 -31 -33 -9 -75 -23
-93 -31 -18 -8 -41 -14 -52 -14 -10 0 -31 -6 -47 -14 -15 -7 -45 -21 -66 -30
-73 -31 -112 -48 -127 -57 -8 -5 -22 -12 -30 -15 -8 -3 -22 -10 -30 -15 -8 -5
-22 -12 -30 -15 -8 -3 -22 -10 -30 -15 -8 -5 -24 -13 -35 -18 -11 -5 -37 -21
-58 -35 -21 -14 -40 -26 -44 -26 -3 0 -22 -13 -43 -30 -21 -16 -41 -30 -45
-30 -10 0 -160 -118 -229 -181 -65 -60 -113 -107 -196 -195 -73 -77 -220 -273
-220 -293 0 -9 15 -32 33 -52 17 -19 64 -71 102 -114 83 -94 202 -215 265
-270 25 -22 86 -76 134 -120 49 -44 92 -81 97 -83 9 -4 39 50 39 72 0 8 6 27
14 43 8 15 30 59 48 96 18 38 39 73 45 79 7 6 13 17 13 25 0 8 13 32 28 52 16
20 32 44 35 54 4 9 11 17 17 17 5 0 10 4 10 9 0 14 47 68 135 156 110 110 167
156 240 195 11 6 34 19 50 29 49 32 110 61 127 61 9 0 21 7 28 15 7 8 22 15
34 15 11 0 34 7 50 15 15 8 39 15 51 15 13 0 36 5 52 11 15 6 93 17 173 24
199 18 433 -5 522 -51 14 -8 35 -14 46 -14 11 0 25 -7 32 -15 7 -8 21 -15 31
-15 10 0 21 -5 24 -11 4 -5 17 -14 28 -20 82 -35 247 -183 312 -280 16 -24 32
-46 35 -49 18 -18 100 -181 100 -201 0 -8 7 -23 15 -33 8 -11 15 -29 15 -41 0
-12 7 -30 15 -41 8 -10 15 -31 15 -45 0 -15 7 -46 15 -69 8 -23 15 -59 15 -80
0 -20 7 -59 15 -86 11 -38 15 -108 15 -316 0 -157 -4 -278 -10 -293 -6 -15
-15 -71 -20 -124 -5 -53 -14 -115 -19 -138 -6 -24 -16 -62 -22 -85 -6 -24 -13
-59 -16 -78 -3 -19 -12 -44 -19 -55 -8 -11 -14 -30 -14 -42 0 -21 -16 -67 -46
-126 -8 -16 -14 -37 -14 -47 0 -9 -7 -23 -15 -30 -8 -7 -15 -18 -15 -24 0 -15
-62 -137 -77 -154 -7 -7 -13 -17 -13 -22 0 -33 -180 -256 -268 -332 -87 -75
-134 -113 -151 -121 -9 -4 -29 -16 -46 -27 -16 -11 -40 -24 -52 -29 -11 -5
-24 -15 -28 -20 -3 -6 -14 -11 -24 -11 -10 0 -24 -7 -31 -15 -7 -8 -22 -15
-34 -15 -11 0 -30 -7 -40 -15 -11 -8 -26 -15 -34 -15 -8 0 -28 -6 -45 -14 -51
-21 -132 -36 -285 -51 -118 -11 -167 -11 -275 -1 -73 7 -142 18 -154 24 -12 7
-33 12 -47 12 -13 0 -37 6 -53 14 -15 8 -59 29 -98 47 -38 18 -86 45 -106 61
-20 15 -40 28 -44 28 -15 0 -214 210 -228 240 -4 8 -16 29 -26 45 -33 51 -91
171 -91 186 0 8 -7 24 -15 35 -8 10 -15 27 -15 37 0 11 -6 31 -14 45 -8 15
-22 66 -32 115 -11 58 -22 87 -31 87 -7 0 -39 -9 -70 -20 -32 -11 -78 -20
-104 -20 -26 0 -83 -7 -126 -15 -43 -8 -109 -15 -148 -15 -38 0 -104 -5 -145
-10 -118 -16 -264 -14 -302 4 -78 36 -123 46 -217 46 -53 0 -121 7 -151 15
-30 8 -79 15 -109 15 -63 0 -272 34 -327 54 -22 7 -70 19 -109 26 -38 7 -90
24 -114 37 -24 12 -53 23 -63 23 -29 0 -127 30 -133 41 -4 5 -14 9 -24 9 -25
0 -142 49 -163 67 -10 9 -18 14 -18 10 0 -13 -78 17 -112 44 -20 16 -40 29
-45 29 -7 0 -145 68 -198 97 -11 7 -28 14 -38 17 -10 3 -15 11 -12 16 4 6 1
18 -6 26 -19 24 3 37 71 42 39 3 65 0 75 -8 11 -9 18 -10 28 -1 9 7 64 11 150
10 76 0 142 3 148 7 7 4 44 11 83 16 98 11 165 23 276 47 52 11 104 21 116 21
11 0 34 7 50 15 16 8 57 17 89 20 75 8 146 25 165 40 8 6 53 20 100 29 47 10
112 26 144 37 85 27 149 25 190 -6 18 -14 40 -25 48 -25 8 0 26 -10 39 -22 33
-31 76 -58 90 -58 7 0 20 -6 28 -14 9 -7 44 -23 79 -35 34 -12 70 -25 80 -31
9 -5 42 -16 73 -25 31 -8 60 -22 63 -31 4 -9 13 -13 24 -10 10 4 50 -5 89 -19
61 -21 239 -71 383 -106 25 -6 68 -18 97 -26 29 -8 56 -12 61 -9 9 5 60 -6
212 -45 25 -6 81 -15 125 -20 107 -11 239 -39 253 -54 10 -10 -46 -55 -69 -55
-11 0 -30 -6 -42 -14 -12 -8 -44 -17 -72 -21 -27 -4 -86 -16 -130 -27 -44 -11
-107 -24 -140 -28 -99 -14 -176 -37 -198 -59 -12 -11 -19 -23 -16 -25 15 -16
257 2 280 20 8 6 41 14 73 17 32 3 64 11 69 16 6 6 28 11 49 11 21 0 55 7 75
15 19 8 47 15 60 15 14 0 39 6 56 14 18 8 50 17 72 19 22 2 54 9 70 15 55 19
120 34 155 36 23 1 37 7 42 19 5 10 18 17 36 17 15 0 37 7 48 15 10 8 29 15
40 15 23 0 48 23 37 33 -3 4 -41 7 -84 7 -43 0 -100 5 -126 10 -26 6 -88 14
-138 19 -111 11 -225 28 -285 43 -25 5 -72 14 -105 18 -33 4 -87 13 -120 20
-160 32 -213 43 -250 53 -22 5 -60 14 -85 18 -25 4 -65 13 -90 19 -97 26 -156
42 -185 52 -16 6 -48 14 -70 18 -41 8 -86 23 -143 46 -18 8 -40 14 -50 14 -9
0 -26 7 -36 15 -11 8 -28 15 -37 15 -10 0 -30 6 -46 14 -15 7 -46 21 -68 31
-22 9 -47 21 -55 26 -8 5 -22 12 -30 15 -71 29 -147 75 -231 141 -58 45 -79
52 -98 29 -6 -8 -24 -16 -39 -19 -15 -2 -42 -10 -59 -16 -18 -6 -48 -16 -65
-22 -18 -6 -51 -15 -73 -19 -22 -4 -53 -12 -70 -18 -29 -10 -88 -26 -185 -52
-25 -6 -65 -15 -90 -19 -25 -4 -61 -12 -80 -18 -46 -15 -139 -33 -220 -44 -36
-4 -81 -13 -100 -19 -19 -5 -55 -10 -80 -10 -25 0 -97 -7 -160 -16 -221 -31
-509 -4 -655 62 -16 7 -42 16 -58 20 -15 3 -30 10 -33 15 -3 5 -23 9 -45 9
-35 0 -39 -3 -39 -25 0 -79 374 -324 765 -500 91 -41 125 -55 137 -55 8 0 18
-4 23 -8 10 -9 161 -65 205 -77 14 -3 34 -10 45 -14 11 -5 45 -15 75 -24 30
-9 78 -22 105 -30 28 -8 70 -18 95 -22 25 -4 50 -10 55 -14 6 -3 44 -12 85
-19 186 -31 318 -44 480 -48 163 -3 176 -4 189 -24 12 -18 26 -73 50 -195 4
-22 13 -50 19 -62 7 -12 12 -32 12 -45 0 -13 7 -32 15 -42 8 -11 15 -29 15
-41 0 -12 7 -30 15 -41 8 -10 15 -29 15 -40 0 -12 7 -27 15 -34 8 -7 15 -18
15 -25 0 -14 58 -129 91 -180 10 -16 23 -39 29 -50 34 -67 173 -247 255 -329
105 -105 235 -208 310 -246 11 -6 34 -19 50 -30 44 -28 229 -120 242 -120 6 0
24 -6 40 -14 37 -18 90 -36 133 -45 19 -4 45 -13 57 -19 12 -7 32 -12 45 -12
13 0 52 -7 88 -15 109 -25 314 -38 480 -31 205 8 348 21 383 35 16 6 47 11 70
11 23 1 53 7 67 15 14 8 38 14 53 15 16 0 38 5 50 12 12 6 38 15 57 19 43 9
96 27 133 45 16 8 35 14 42 14 7 0 26 6 42 14 15 8 46 22 68 32 22 9 47 21 55
25 8 5 38 20 67 34 28 14 55 30 58 35 3 6 12 10 20 10 8 0 31 12 52 26 21 14
48 30 61 35 12 5 22 13 22 19 0 5 5 10 10 10 13 0 120 77 213 154 66 54 255
240 318 312 39 45 149 192 149 199 0 4 13 24 28 44 16 20 32 43 35 51 4 8 16
29 27 45 34 53 150 290 150 306 0 9 7 22 15 29 8 7 15 22 15 34 0 11 7 30 15
40 8 11 15 29 15 41 0 12 5 26 11 32 6 6 15 29 19 50 5 21 13 53 19 71 6 17
16 47 22 65 6 17 15 50 19 72 4 22 12 60 18 85 22 91 35 167 42 245 5 44 13
109 19 145 14 83 14 435 0 520 -6 36 -14 97 -18 135 -5 39 -14 83 -20 98 -6
16 -11 43 -11 61 0 19 -7 50 -15 69 -8 20 -15 49 -15 65 0 15 -7 37 -15 48 -8
10 -15 30 -15 44 0 14 -7 34 -15 44 -8 11 -15 28 -15 37 0 10 -6 30 -14 46 -7
15 -21 46 -31 68 -9 22 -21 47 -26 55 -5 8 -12 22 -15 30 -3 8 -9 22 -14 30
-5 8 -19 35 -31 60 -25 50 -60 103 -71 108 -5 2 -8 8 -8 13 0 9 -36 65 -50 79
-3 3 -32 39 -65 80 -70 88 -150 170 -220 225 -27 22 -51 43 -53 47 -2 5 -8 8
-12 8 -5 0 -24 14 -42 30 -18 17 -36 30 -40 30 -5 0 -27 14 -50 30 -22 17 -47
30 -55 30 -7 0 -13 4 -13 9 0 5 -12 14 -27 20 -16 6 -36 15 -45 21 -46 27 -54
30 -68 36 -8 3 -28 12 -43 20 -16 7 -36 14 -45 14 -9 0 -26 7 -36 15 -11 8
-29 15 -40 15 -12 0 -30 7 -40 15 -11 8 -34 15 -50 15 -17 1 -42 7 -56 15 -14
8 -39 14 -57 15 -17 0 -44 5 -60 11 -15 7 -66 16 -113 20 -125 13 -477 19
-535 9z m559 -111 c66 -11 127 -24 137 -30 10 -5 33 -9 52 -9 19 0 40 -7 47
-15 7 -8 29 -15 50 -15 21 0 43 -7 50 -15 7 -8 18 -15 24 -15 23 0 269 -124
320 -161 22 -16 44 -29 49 -29 6 0 19 -9 31 -20 12 -11 39 -35 61 -54 127
-109 181 -162 234 -228 33 -40 71 -87 85 -104 15 -18 26 -36 26 -42 0 -5 7
-15 16 -23 8 -7 26 -33 40 -58 13 -25 29 -53 34 -61 11 -17 76 -160 110 -240
12 -30 28 -70 36 -88 8 -18 14 -40 14 -50 0 -9 12 -48 26 -87 14 -38 30 -104
34 -145 7 -70 14 -117 41 -299 9 -58 8 -79 -2 -98 -11 -20 -11 -28 0 -46 14
-22 16 -161 3 -181 -4 -6 -8 -27 -8 -46 -4 -105 -39 -397 -50 -410 -7 -8 -15
-37 -19 -65 -4 -27 -14 -61 -22 -74 -8 -13 -13 -35 -10 -49 5 -24 -3 -49 -44
-139 -10 -23 -19 -46 -19 -51 0 -5 -7 -23 -15 -38 -8 -16 -15 -36 -15 -44 0
-8 -7 -24 -15 -34 -8 -11 -15 -29 -15 -41 0 -12 -16 -47 -35 -79 -19 -32 -35
-65 -35 -74 0 -9 -15 -38 -33 -66 -59 -89 -137 -223 -137 -235 0 -6 -11 -17
-25 -23 -14 -6 -25 -16 -25 -23 0 -6 -13 -24 -30 -40 -16 -16 -30 -34 -30 -39
0 -12 -225 -256 -249 -270 -9 -6 -44 -34 -79 -63 -34 -29 -66 -53 -71 -53 -10
0 -34 -19 -106 -82 -23 -21 -47 -38 -52 -38 -6 0 -28 -13 -49 -28 -21 -15 -55
-34 -74 -42 -19 -7 -44 -21 -55 -31 -11 -9 -42 -24 -70 -34 -27 -9 -61 -24
-75 -33 -34 -23 -85 -45 -150 -65 -146 -45 -219 -65 -260 -72 -25 -4 -49 -11
-55 -15 -13 -11 -126 -28 -290 -44 -220 -22 -555 -5 -655 32 -8 3 -22 6 -30 7
-8 0 -42 9 -75 19 -187 57 -317 108 -355 140 -17 14 -51 34 -75 45 -24 10 -68
38 -99 60 -30 23 -58 41 -62 41 -19 0 -264 236 -264 255 0 6 -18 29 -40 50
-22 21 -40 43 -40 48 0 5 -12 24 -27 43 -58 70 -73 93 -73 112 0 11 -7 25 -16
33 -19 15 -72 121 -103 204 -12 33 -31 79 -42 103 -10 23 -19 51 -19 61 0 10
-16 50 -35 87 -19 38 -35 79 -35 92 0 36 67 61 160 62 79 0 364 24 465 39 33
5 83 5 110 0 28 -4 55 -8 61 -8 7 -1 14 -35 18 -85 4 -60 13 -99 31 -134 14
-28 25 -59 25 -70 0 -10 10 -35 23 -53 12 -19 33 -54 46 -79 13 -25 30 -52 37
-61 8 -8 14 -19 14 -24 0 -13 104 -131 166 -187 72 -66 129 -109 169 -128 17
-8 42 -22 57 -32 34 -24 159 -64 223 -73 50 -7 98 -19 145 -37 33 -13 323 -11
385 2 28 6 68 15 90 21 22 5 51 12 65 14 72 13 90 18 101 31 6 8 24 14 38 14
15 0 36 7 47 15 10 8 26 15 35 15 29 0 234 116 285 162 11 10 24 18 29 18 11
0 211 206 233 240 9 14 38 53 65 88 27 35 55 78 62 96 8 18 21 38 29 46 9 7
16 17 16 22 0 6 20 52 45 104 25 51 45 98 45 105 0 6 9 30 19 53 10 23 27 70
36 106 9 36 23 80 31 99 8 18 17 54 20 80 3 25 12 64 20 86 25 75 44 314 44
564 0 278 -16 425 -60 561 -10 30 -28 89 -41 130 -12 41 -44 116 -70 167 -49
95 -152 243 -169 243 -5 0 -16 12 -24 28 -8 15 -37 44 -63 65 -26 21 -73 58
-104 82 -31 25 -60 45 -65 45 -4 0 -46 18 -91 40 -169 83 -269 102 -528 101
-110 0 -220 -5 -245 -11 -164 -38 -222 -54 -275 -77 -126 -55 -223 -104 -251
-128 -16 -14 -53 -42 -82 -63 -80 -56 -250 -232 -297 -307 -10 -16 -24 -34
-32 -38 -7 -4 -13 -14 -13 -22 0 -8 -8 -20 -18 -27 -9 -7 -23 -26 -30 -42 -7
-16 -31 -60 -53 -98 -52 -89 -71 -91 -163 -13 -36 31 -71 64 -78 73 -7 10 -28
28 -45 41 -18 12 -33 27 -33 32 0 5 -17 26 -37 47 -77 77 -153 170 -153 186 0
33 29 83 104 176 42 52 81 96 86 98 5 2 40 35 77 74 38 38 80 77 94 85 14 8
34 28 45 44 10 16 26 29 35 29 8 0 28 14 44 30 16 17 33 30 38 30 4 0 34 21
65 46 31 26 76 55 100 65 23 10 42 22 42 27 0 5 17 16 38 25 20 9 44 20 52 25
49 28 147 73 160 72 9 0 24 6 35 14 54 37 433 146 512 146 21 1 60 7 88 14 27
7 110 14 185 15 74 1 137 5 140 8 9 9 212 -7 334 -28z"/>
<path d="M1411 6051 c-12 -8 -11 -19 7 -75 12 -36 26 -74 30 -84 5 -9 17 -35
27 -57 9 -22 21 -47 26 -55 5 -8 11 -21 14 -27 13 -33 16 -40 35 -68 11 -16
24 -39 30 -50 6 -11 19 -33 30 -50 11 -16 23 -37 27 -45 21 -44 68 -103 90
-111 13 -5 43 -9 66 -9 23 0 64 -7 91 -15 27 -8 74 -15 105 -15 31 0 99 -7
151 -15 135 -21 779 -21 945 0 187 23 196 22 222 -24 31 -54 270 -261 301
-261 6 0 12 -3 14 -7 3 -9 55 -46 78 -56 8 -4 29 -16 45 -27 17 -11 39 -24 50
-30 11 -6 47 -26 80 -45 108 -61 448 -228 550 -270 22 -9 54 -22 70 -30 17 -7
48 -21 70 -31 22 -9 54 -23 70 -30 17 -6 47 -19 67 -28 67 -29 102 -44 148
-61 25 -10 59 -23 75 -31 34 -14 100 -43 160 -68 22 -10 50 -22 62 -28 39 -19
47 2 12 33 -18 16 -36 29 -41 29 -8 0 -110 60 -118 70 -3 4 -12 10 -20 13 -20
10 -53 31 -155 102 -48 33 -94 65 -103 70 -19 12 -18 11 -104 75 -37 28 -71
50 -76 50 -5 0 -22 13 -38 30 -16 16 -32 30 -37 30 -8 0 -438 321 -466 348 -9
9 -39 35 -66 57 -86 70 -127 107 -241 220 -110 109 -157 170 -170 219 -9 38
-24 46 -69 36 -95 -22 -214 -40 -260 -40 -27 0 -90 -7 -140 -15 -109 -18 -661
-21 -746 -4 -30 5 -88 14 -129 19 -75 9 -139 23 -195 42 -16 5 -41 12 -55 15
-49 9 -209 86 -265 127 -22 17 -75 65 -118 108 -77 77 -103 90 -136 69z m372
-351 c30 -16 67 -30 84 -30 17 0 36 -7 43 -15 7 -8 25 -15 41 -15 15 0 51 -9
78 -20 107 -42 475 -58 901 -40 157 6 312 16 345 22 87 14 143 11 174 -9 15
-10 56 -52 91 -93 63 -74 90 -100 223 -223 38 -34 84 -77 103 -94 19 -18 39
-33 45 -33 26 0 308 -249 309 -272 0 -16 -41 -7 -57 12 -11 12 -30 20 -49 20
-19 0 -44 10 -61 23 -15 12 -57 38 -93 56 -73 37 -270 154 -314 185 -15 12
-58 49 -95 84 -37 34 -71 62 -76 62 -4 0 -36 27 -71 60 -97 90 -99 91 -287 90
-89 0 -188 0 -219 0 -45 0 -58 -3 -58 -15 0 -23 -315 -22 -348 1 -18 13 -39
15 -105 9 -68 -5 -294 6 -387 19 -99 14 -169 29 -195 43 -67 35 -110 91 -135
176 -8 26 -7 27 26 27 20 0 57 -13 87 -30z"/>
<path d="M887 5398 c-4 -13 1 -33 10 -48 24 -37 188 -196 267 -260 38 -30 76
-63 85 -72 8 -10 19 -18 24 -18 4 0 53 -34 107 -75 54 -41 102 -75 106 -75 3
0 23 -12 43 -27 40 -31 67 -48 96 -63 11 -6 34 -19 50 -30 17 -11 40 -24 52
-29 11 -5 24 -15 28 -20 14 -24 176 -13 445 30 36 6 94 14 130 19 36 5 78 13
93 19 16 6 46 11 68 11 22 0 56 7 76 15 19 8 49 15 65 15 16 0 45 7 65 15 19
8 48 15 63 15 15 0 44 7 63 15 20 8 49 15 64 15 15 0 41 7 57 15 15 8 37 15
48 15 10 0 31 6 47 14 26 14 29 13 66 -21 34 -31 108 -83 167 -118 10 -5 53
-27 95 -49 43 -21 85 -42 93 -47 8 -5 22 -12 30 -15 26 -10 84 -36 112 -51 14
-7 33 -13 42 -13 9 0 24 -4 34 -10 21 -12 98 -40 132 -47 14 -3 31 -10 38 -16
7 -5 29 -13 50 -18 66 -14 127 -31 145 -41 10 -5 37 -13 60 -18 42 -9 86 -20
182 -45 93 -25 150 -38 195 -45 25 -4 58 -12 73 -19 16 -6 43 -11 62 -11 19 0
46 -5 62 -11 15 -6 57 -15 93 -19 68 -9 138 -22 255 -45 81 -16 175 -33 260
-46 33 -5 68 -14 77 -19 25 -14 33 6 11 29 -10 11 -31 23 -48 26 -49 12 -129
37 -140 45 -5 4 -21 10 -35 13 -14 3 -50 15 -80 27 -30 12 -64 24 -75 27 -11
3 -33 11 -50 18 -80 36 -104 45 -118 45 -9 0 -18 4 -21 9 -3 5 -18 12 -33 15
-27 6 -67 24 -125 53 -14 7 -33 13 -41 13 -9 0 -28 6 -44 14 -15 8 -44 21 -63
29 -19 8 -51 22 -70 30 -91 40 -109 47 -117 47 -4 0 -35 14 -68 30 -33 16 -65
30 -72 30 -6 0 -24 6 -40 14 -36 19 -158 75 -200 93 -80 34 -109 47 -123 55
-8 4 -22 11 -30 14 -29 11 -85 37 -100 46 -8 4 -22 11 -30 14 -36 15 -338 168
-365 185 -16 10 -39 23 -50 29 -34 17 -57 34 -91 67 -30 30 -36 32 -86 27 -29
-3 -78 -10 -108 -16 -30 -6 -82 -13 -115 -15 -33 -2 -132 -10 -220 -19 -293
-28 -940 -12 -1105 28 -25 6 -67 14 -95 17 -27 4 -60 12 -72 19 -12 7 -34 12
-50 12 -15 0 -37 7 -47 15 -11 8 -30 15 -42 15 -12 0 -27 7 -34 15 -7 8 -19
15 -26 15 -13 0 -63 25 -119 60 -35 22 -114 60 -125 60 -4 0 -10 -10 -13 -22z
m668 -307 c252 -33 321 -38 560 -39 143 -1 285 3 315 8 30 5 123 12 205 14 83
3 186 10 230 17 44 7 112 12 150 13 62 0 75 -3 115 -31 25 -17 55 -34 68 -37
12 -4 27 -16 32 -27 6 -10 18 -19 28 -19 9 0 44 -18 77 -40 33 -22 65 -40 72
-40 7 0 37 -12 65 -27 29 -14 65 -32 80 -40 16 -7 40 -19 55 -27 16 -8 47 -20
70 -27 24 -7 50 -20 59 -31 10 -10 26 -18 36 -18 10 0 60 -21 111 -46 51 -25
124 -56 162 -69 128 -43 185 -72 185 -96 0 -20 -4 -21 -42 -15 -24 4 -47 11
-52 17 -6 5 -29 9 -52 9 -24 0 -46 5 -49 10 -4 6 -15 8 -24 5 -10 -3 -24 1
-31 10 -7 8 -19 15 -28 15 -17 0 -30 4 -172 51 -52 17 -100 35 -106 40 -6 5
-35 18 -65 28 -90 32 -203 87 -223 110 -11 11 -29 21 -42 21 -12 0 -40 15 -63
33 -87 69 -100 77 -119 77 -11 0 -22 5 -24 11 -5 14 -142 22 -183 10 -16 -5
-57 -14 -90 -20 -33 -7 -81 -18 -106 -26 -26 -8 -58 -15 -72 -15 -33 0 -143
-27 -184 -46 -17 -8 -60 -14 -95 -14 -35 0 -68 -4 -73 -9 -6 -5 -39 -11 -75
-12 -36 -2 -70 -7 -76 -11 -44 -33 -319 -50 -399 -25 -22 6 -51 20 -65 30 -14
10 -77 51 -140 93 -63 41 -127 88 -141 103 -15 16 -36 32 -47 36 -23 7 -37 38
-26 56 7 11 35 10 189 -10z"/>
</g>
</svg>
